<?xml version="1.0" encoding="UTF-8"?><svg id="_レイヤー_2" xmlns="http://www.w3.org/2000/svg" viewBox="0 0 9.52 13.28"><defs><style>.cls-1{fill:#e8546b;}</style></defs><g id="_レイヤー_1-2"><path class="cls-1" d="M.82,13.28c-.11,0-.21-.02-.32-.06-.42-.18-.61-.66-.43-1.07L5.01.5c.18-.42.66-.61,1.07-.43.42.18.61.66.43,1.07L1.57,12.78c-.13.31-.43.5-.75.5Z"/><path class="cls-1" d="M5.4,13.16c-.16,0-.31-.04-.45-.14-.38-.25-.48-.76-.23-1.13.58-.87,1.11-1.79,1.63-2.67.52-.9,1.07-1.83,1.67-2.74.25-.38.76-.48,1.13-.23.38.25.48.76.23,1.13-.57.86-1.1,1.77-1.61,2.65-.53.91-1.07,1.85-1.68,2.76-.16.24-.42.36-.68.36Z"/></g></svg>