<?xml version="1.0" encoding="UTF-8"?><svg id="_レイヤー_2" xmlns="http://www.w3.org/2000/svg" viewBox="0 0 21.84 19.88"><defs><style>.cls-1{fill:#df0f1f;}</style></defs><g id="_レイヤー_1-2"><path class="cls-1" d="M14.22,11.3c-.26,3.29-2.58.22-3.59-.87-.64-1.13-3.26-2.79-2.06-4.1.65-.27,1.33.08,1.64.68.97,1.84,2.57,2.88,4.01,4.3Z"/><path class="cls-1" d="M.1,15.61c2.8-.06,4.91,2.68,7.88,2.58.67.14.83,1.11.3,1.55-1.54.81-6.29-1.95-7.85-2.84-.47-.3-.53-.77-.34-1.29Z"/><path class="cls-1" d="M21.26,7.97c-.34-.25-.96-.46-1.06-.81-.22-1.02-2.94-8.56-.11-6.93.73,1.95,1.04,4.06,1.64,6.06.17.62.2,1.15-.48,1.68Z"/></g></svg>